VIDEO INFO:


Format                           : AVI
Format/Info                      : Audio Video Interleave
Format profile                   : OpenDML
Format settings                  : rec
File size                        : 1.31 GiB
Duration                         : 1h 31mn
Overall bit rate                 : 2 039 Kbps
Movie name                       : MY DVD.Title3.DVDRip
Writing application              : AVI-Mux GUI 1.17.7, Aug  8 2006  20:59:17

Video
ID                               : 0
Format                           : MPEG-4 Visual
Format profile                   : Advanced Simple@L5
Format settings, BVOP            : 2
Format settings, QPel            : No
Format settings, GMC             : No warppoints
Format settings, Matrix          : Default (H.263)
Muxing mode                      : Packed bitstream
Codec ID                         : XVID
Codec ID/Hint                    : XviD
Duration                         : 1h 31mn
Bit rate                         : 1 585 Kbps
Width                            : 720 pixels
Height                           : 544 pixels
Display aspect ratio             : 4:3
Frame rate                       : 25.000 fps
Color space                      : YUV
Chroma subsampling               : 4:2:0
Bit depth                        : 8 bits
Scan type                        : Progressive
Compression mode                 : Lossy
Bits/(Pixel*Frame)               : 0.162
Stream size                      : 1.02 GiB (78%)
Writing library                  : XviD 1.2.1 (UTC 2008-12-04)

Audio
ID                               : 1
Format                           : AC-3
Format/Info                      : Audio Coding 3
Mode extension                   : CM (complete main)
Codec ID                         : 2000
Duration                         : 1h 31mn
Bit rate mode                    : Constant
Bit rate                         : 448 Kbps
Channel(s)                       : 6 channels
Channel positions                : Front: L C R, Side: L R, LFE
Sampling rate                    : 48.0 KHz
Bit depth                        : 16 bits
Compression mode                 : Lossy
Stream size                      : 294 MiB (22%)
Alignment                        : Aligned on interleaves
Interleave, duration             : 64 ms (1.60 video frames)
Interleave, preload duration     : 192 ms

Text
ID                               : 2
Stream size                      : 116 KiB (0%)

-------------------------------------

Verenigde Staten / Duitsland
Komedie / Sciencefiction
95 minuten

geregisseerd door Dick Lowry
met Martin Sheen, Jensen Daggett en de stem van Paul Fusco

Als Alf eindelijk weer terug keert naar zijn nieuwe thuis wordt hij gevangen genomen door de Alien Task Force waarvan de leider hem een kopje kleiner wil maken. Twee medewerkers verzetten zich hiertegen en ontvoeren Alf, maar dan wel om hem aan de wereld te kunnen tonen. Daardoor is Alf nu nog verder van huis.

-Ondertiteling (nederlands) in de film met mogelijkheid deze aan/uit te zetten.

Heb deze film al eens eerder aangeboden maar heb nu het geluid aangepast. Ondertiteling ook uiteraard van mezelf en ook iets aangepast.